<?xml version="1.0" encoding="utf-8"?>
<!-- Generator: Adobe Illustrator 26.0.3, SVG Export Plug-In . SVG Version: 6.00 Build 0)  -->
<svg version="1.1" id="Layer_1" xmlns="http://www.w3.org/2000/svg" xmlns:xlink="http://www.w3.org/1999/xlink" x="0px" y="0px"
	 viewBox="0 0 300 300" style="enable-background:new 0 0 300 300;" xml:space="preserve">
<style type="text/css">
	.st0{fill:#FFAC3A;}
</style>
<g>
	<g>
		<path class="st0" d="M222.1,17.8c1.3,0,2.3,0,3.3,0c8.6,0.1,17.3,0.1,25.9,0.2c4.2,0,6.8,2.3,6.8,5.9c0.1,3.6-2.7,6-6.9,6.1
			c-1.6,0-3.1,0-4.9,0c0,16.1,0,31.9,0,48c1.7,0,3.3,0,4.8,0c4.3,0.1,7,2.5,7,6.1c0,3.6-2.7,5.9-7.1,6c-1.5,0-3,0-4.7,0
			c0,40,0,79.9,0,120.1c1.4,0,2.9,0,4.3,0c4.5,0,7.3,2.2,7.4,5.9c0.1,3.8-2.7,6-7.5,6.1c-1.4,0-2.8,0-4.3,0c0,16.2,0,32,0,48.2
			c2,0,3.8-0.1,5.6,0c3.6,0.1,6.2,2.6,6.1,6c0,3.3-2.6,5.8-6.2,6c-0.7,0-1.5,0-2.3,0c-66.5,0-132.9,0-199.4,0c-1,0-2.1,0.1-3.1-0.1
			c-3.2-0.4-5.5-3.1-5.3-6.2c0.1-3,2.4-5.4,5.6-5.6c1.9-0.1,3.9,0,6.1,0c0-16.1,0-32,0-48.2c-1.6,0-3,0-4.5,0
			c-4.5,0-7.3-2.4-7.2-6.1c0.1-3.6,2.8-5.9,7.1-5.9c1.5,0,3,0,4.6,0c0-40.1,0-79.9,0-120.1c-1.6,0-3.1,0-4.7,0c-4.3-0.1-7-2.4-7.1-6
			c0-3.6,2.7-6,6.9-6.1c1.6,0,3.1,0,4.8,0c0-16.1,0-31.9,0-48c-1.9,0-3.7,0-5.4,0c-3.8-0.1-6.4-2.7-6.4-6.1c0-3.3,2.6-5.8,6.3-5.9
			c5-0.1,9.9-0.2,14.9-0.2c31.6,0,63.3,0,94.9,0c1.2,0,2.4,0,4,0l12.4-0.2c12,0,23.8,0,35.6,0L222.1,17.8z M66.1,90.3
			c0,40.1,0,80,0,119.8c56,0,111.9,0,167.8,0c0-40,0-79.8,0-119.8C177.9,90.3,122.1,90.3,66.1,90.3z M233.9,77.9
			c0-16.1,0-31.9,0-47.7c-56,0-111.9,0-167.8,0c0,16,0,31.8,0,47.7C122.1,77.9,177.9,77.9,233.9,77.9z M66.1,270
			c56.1,0,111.9,0,167.8,0c0-16,0-31.8,0-47.6c-56.1,0-111.9,0-167.8,0C66.1,238.4,66.1,254.1,66.1,270z"/>
	</g>
	<path class="st0" d="M169.5,163.3c0,10.9-8.9,19.8-19.8,19.8c-10.9,0-19.8-8.9-19.8-19.8c0-14,11.7-32.1,19.8-42.5
		C157.8,131.2,169.5,149.2,169.5,163.3 M144.8,106.1c-1.1,1.3-28.1,31.2-28.1,57.2c0,18.2,14.8,33,33,33c18.2,0,33-14.8,33-33
		c0-26-26.9-55.9-28.1-57.2C152.1,103.4,147.3,103.4,144.8,106.1"/>
</g>
</svg>
