<?xml version="1.0" encoding="utf-8"?>
<!-- Generator: Adobe Illustrator 26.0.3, SVG Export Plug-In . SVG Version: 6.00 Build 0)  -->
<svg version="1.1" id="Layer_1" xmlns="http://www.w3.org/2000/svg" xmlns:xlink="http://www.w3.org/1999/xlink" x="0px" y="0px"
	 viewBox="0 0 300 300" style="enable-background:new 0 0 300 300;" xml:space="preserve">
<style type="text/css">
	.st0{fill:#FFAC3A;stroke:#FFFFFF;stroke-width:10;stroke-miterlimit:10;}
</style>
<path class="st0" d="M202.4,185.2c0,29-23.6,52.7-52.7,52.7c-29,0-52.7-23.6-52.7-52.7c0-37.4,31.1-85.5,52.7-113.1
	C171.3,99.7,202.4,147.7,202.4,185.2 M136.7,32.9c-3.1,3.4-74.8,83.1-74.8,152.3c0,48.4,39.4,87.8,87.8,87.8
	c48.4,0,87.8-39.4,87.8-87.8c0-69.2-71.7-148.9-74.8-152.3C156.1,25.6,143.4,25.6,136.7,32.9"/>
</svg>
