<svg xmlns="http://www.w3.org/2000/svg" viewBox="0 0 135.19 82.29"><g id="Layer_2" data-name="Layer 2"><g id="Layer_1-2" data-name="Layer 1"><path d="M129.32,41.15h-14.7a2.94,2.94,0,0,1-2.94-2.94V11.76h5.19a2.91,2.91,0,0,1,2.62,1.62l8.89,17.77a8.94,8.94,0,0,1,.94,4Zm0,26.45a2.94,2.94,0,0,1-2.94,2.94h-8.82a11.72,11.72,0,0,0-21.88-5.88H85.23a2.94,2.94,0,0,0-2.08.86l-5,5H70.54a11.76,11.76,0,0,0-23.52,0H41.15a11.76,11.76,0,1,0-23.52,0H8.82A2.94,2.94,0,0,1,5.88,67.6V52.9H91.11A2.94,2.94,0,0,0,94.05,50V11.76H105.8V38.21A8.83,8.83,0,0,0,114.62,47h14.7ZM105.8,76.41a5.88,5.88,0,1,1,5.88-5.87,5.88,5.88,0,0,1-5.88,5.87m-47,0a5.88,5.88,0,1,1,5.88-5.87,5.89,5.89,0,0,1-5.88,5.87m-29.39,0a5.88,5.88,0,1,1,5.88-5.87,5.89,5.89,0,0,1-5.88,5.87M5.88,5.88H70.54V47H5.88ZM76.41,29.39H88.17V47H76.41Zm57.23-.87-8.89-17.77a8.77,8.77,0,0,0-7.88-4.87H91.11a2.94,2.94,0,0,0-2.94,2.94V23.51H76.41V2.94A2.94,2.94,0,0,0,73.48,0H2.94A2.94,2.94,0,0,0,0,2.94V67.6a8.83,8.83,0,0,0,8.82,8.81H19.27a11.65,11.65,0,0,0,20.24,0h9.15a11.65,11.65,0,0,0,20.24,0H79.35a2.94,2.94,0,0,0,2.08-.86l5-5h7.6a11.71,11.71,0,0,0,21.87,5.87h10.46a8.82,8.82,0,0,0,8.81-8.81V35.11a14.94,14.94,0,0,0-1.55-6.59" fill="#ffac3a"/></g></g></svg>