<svg xmlns="http://www.w3.org/2000/svg" viewBox="0 0 142.92 62.14"><g id="Layer_2" data-name="Layer 2"><g id="Layer_1-2" data-name="Layer 1"><path d="M136.71,46.61a3.11,3.11,0,0,1-3.11,3.1h-9.35a12.43,12.43,0,0,0-24.85,0H43.5a12.43,12.43,0,0,0-24.86,0H9.32a3.11,3.11,0,0,1-3.11-3.1V29a2.7,2.7,0,0,1,1.84-2.56l4.88-1.62H91.76a36.22,36.22,0,0,0,14.14-2.95l22,5.9c7.77,2.51,8.77,5.65,8.77,8.1Zm-24.89,9.32A6.22,6.22,0,1,1,118,49.71a6.22,6.22,0,0,1-6.22,6.22m-80.75,0a6.22,6.22,0,1,1,6.21-6.22,6.22,6.22,0,0,1-6.21,6.22M25.78,7.58a3.08,3.08,0,0,1,2.57-1.37h8.93V18.64h-19ZM43.5,6.21H83.89a3.13,3.13,0,0,1,2.2.91L99.38,17.6a29.84,29.84,0,0,1-7.62,1H43.5Zm86.2,15.64-22.56-6L90.34,2.59A9.29,9.29,0,0,0,83.89,0H28.35a9.3,9.3,0,0,0-7.72,4.1l-10.19,15L6.09,20.59A8.89,8.89,0,0,0,0,29V46.61a9.33,9.33,0,0,0,9.32,9.32H20.37a12.32,12.32,0,0,0,21.4,0h59.35a12.32,12.32,0,0,0,21.4,0H133.6a9.33,9.33,0,0,0,9.32-9.32V35.91c0-6.5-4.39-11.21-13.22-14.06" fill="#006341"/></g></g></svg>