<?xml version="1.0" encoding="utf-8"?>
<!-- Generator: Adobe Illustrator 26.2.0, SVG Export Plug-In . SVG Version: 6.00 Build 0)  -->
<svg version="1.1" id="Layer_1" xmlns="http://www.w3.org/2000/svg" xmlns:xlink="http://www.w3.org/1999/xlink" x="0px" y="0px"
	 viewBox="0 0 300 300" style="enable-background:new 0 0 300 300;" xml:space="preserve">
<style type="text/css">
	.st0{fill:#FFAC3A;}
	.st1{fill:none;}
</style>
<g>
	<path class="st0" d="M281.9,123H242c-3.7,0-6.7,3-6.7,6.6v102c-26.3,11.5-46.1,10.9-46.5,10.9h-93c-3.7,0-6.6-3-6.6-6.7
		c0-3.6,2.9-6.6,6.6-6.6h39.9c3.7,0,6.6-3,6.6-6.6c0-3.7-3-6.6-6.6-6.6H95.9c0,0,0,0-0.1,0H75.9c-3.7,0-6.6-3-6.6-6.7
		c0-3.6,3-6.6,6.6-6.6c0,0,0,0,0,0h59.8c3.7,0,6.6-3,6.6-6.6c0-3.7-3-6.6-6.6-6.6H76c0,0,0,0-0.1,0h-6.6c-3.7,0-6.6-3-6.6-6.7
		c0-3.7,3-6.6,6.6-6.6h13.2c0,0,0,0,0.1,0h39.9c3.7,0,6.6-3,6.6-6.6c0-3.7-3-6.6-6.6-6.6H82.6c0,0,0,0-0.1,0c-3.7,0-6.7-3-6.7-6.7
		c0-3.7,3-6.6,6.7-6.6h13.3c3.7,0,6.6-3,6.6-6.6c0-3.7-3-6.6-6.6-6.6H82.6c-11,0-19.9,8.9-19.9,19.9c0,2.6,0.5,5.1,1.4,7.3
		c-8.5,2.3-14.7,10.1-14.7,19.2c0,7.1,3.7,13.3,9.2,16.8c-1.6,2.9-2.6,6.2-2.6,9.8c0,11,8.9,19.9,19.9,19.9h1.1
		c-0.7,2.1-1.1,4.3-1.1,6.6c0,11,8.9,19.9,19.9,19.9h92.7c0.1,0,0.6,0,1.3,0c5.4,0,26.6-0.9,53.6-13.3h38.4c3.7,0,6.6-3,6.6-6.7
		V129.6C288.5,126,285.6,123,281.9,123 M275.3,229.3h-26.6v-93h26.6V229.3z"/>
	<path class="st0" d="M140.4,86.5c3.6,1.3,6.9,2.6,9.8,3.8c6.8,2.9,12.9,6.9,18.1,12.1l40.6,40.6l-4.6,4.6c-2.5,2.5-6.9,2.5-9.4,0
		l-19-19c-2.6-2.6-6.8-2.6-9.4,0c-11.4,11.4-35.6,11.4-47,0c-2.6-2.6-6.8-2.6-9.4,0c-2.6,2.6-2.6,6.8,0,9.4
		c15,15,43.1,16.4,60.7,4.3l14.7,14.7c3.8,3.8,8.8,5.8,14.1,5.8c5.3,0,10.3-2.1,14.1-5.8l9.3-9.3c1.2-1.2,1.9-2.9,1.9-4.7
		c0-1.8-0.7-3.5-1.9-4.7L177.6,93c-6.4-6.4-13.9-11.4-22.4-14.9c-3-1.3-6.5-2.7-10.3-4c-5.6-2-15.7-10.8-20.8-15.9L96,30
		c-2.5-2.5-6.9-2.5-9.4,0l-75.2,75.2c-1.2,1.2-1.9,2.9-1.9,4.7s0.7,3.5,1.9,4.7l28.2,28.2c1.3,1.3,3,1.9,4.7,1.9
		c1.7,0,3.4-0.6,4.7-1.9l70.6-70.6C124.9,76.9,133.5,84,140.4,86.5 M44.3,128.6l-18.8-18.8l65.8-65.8l18.8,18.8L44.3,128.6z"/>
	<rect x="9.5" y="28.1" class="st1" width="279.1" height="227.8"/>
</g>
</svg>
