<svg xmlns="http://www.w3.org/2000/svg" viewBox="0 0 74.87 103.67"><g id="Layer_2" data-name="Layer 2"><g id="Layer_1-2" data-name="Layer 1"><path d="M69.12,23H5.76V11.52H17.28V14.4a2.88,2.88,0,0,0,5.76,0V11.52h28.8V14.4a2.88,2.88,0,0,0,5.76,0V11.52H69.12ZM72,5.76H57.6V2.88a2.88,2.88,0,0,0-5.76,0V5.76H23V2.88a2.88,2.88,0,0,0-5.76,0V5.76H2.88A2.88,2.88,0,0,0,0,8.64V25.92A2.88,2.88,0,0,0,2.88,28.8H72a2.87,2.87,0,0,0,2.87-2.88V8.64A2.87,2.87,0,0,0,72,5.76" fill="#ffac3a"/><path d="M69.12,97.91H5.76V34.56H0v66.23a2.87,2.87,0,0,0,2.88,2.88H72a2.87,2.87,0,0,0,2.87-2.88V34.56H69.12Z" fill="#ffac3a"/><path d="M20.16,51.84h5.76a2.88,2.88,0,0,0,0-5.76H20.16a2.88,2.88,0,1,0,0,5.76" fill="#ffac3a"/><path d="M20.16,69.12h5.76a2.88,2.88,0,1,0,0-5.76H20.16a2.88,2.88,0,1,0,0,5.76" fill="#ffac3a"/><path d="M37.44,86.39H54.72a2.88,2.88,0,1,0,0-5.75H37.44a2.88,2.88,0,1,0,0,5.75" fill="#ffac3a"/><path d="M37.44,69.12H54.72a2.88,2.88,0,1,0,0-5.76H37.44a2.88,2.88,0,1,0,0,5.76" fill="#ffac3a"/><path d="M37.44,51.84H54.72a2.88,2.88,0,0,0,0-5.76H37.44a2.88,2.88,0,1,0,0,5.76" fill="#ffac3a"/><path d="M20.16,86.39h5.76a2.88,2.88,0,1,0,0-5.75H20.16a2.88,2.88,0,1,0,0,5.75" fill="#ffac3a"/></g></g></svg>