<svg xmlns="http://www.w3.org/2000/svg" viewBox="0 0 86.8 86.8"><g id="Layer_2" data-name="Layer 2"><g id="Layer_1-2" data-name="Layer 1"><path d="M81.69,81.69H51.06V63.82a2.56,2.56,0,0,0-5.11,0V81.69H35.74V63.82a2.56,2.56,0,0,0-5.11,0V81.69H20.42V63.82a2.56,2.56,0,0,0-5.11,0V81.69H5.11V28.43l26.44,22a2.55,2.55,0,0,0,4.19-2V28.43l26.44,22a2.57,2.57,0,0,0,4.18-1.68L71.21,5.11H81.69ZM84.25,0H68.93a2.55,2.55,0,0,0-2.54,2.27L61.81,43.5,34.82,21a2.55,2.55,0,0,0-4.19,2V43.05L4.19,21A2.55,2.55,0,0,0,0,23V84.25A2.55,2.55,0,0,0,2.55,86.8h81.7a2.55,2.55,0,0,0,2.55-2.55V2.55A2.55,2.55,0,0,0,84.25,0" fill="#ffac3a"/></g></g></svg>