<svg xmlns="http://www.w3.org/2000/svg" viewBox="0 0 124.13 86.35"><g id="Layer_2" data-name="Layer 2"><g id="Layer_1-2" data-name="Layer 1"><path d="M100.45,79.23a5.06,5.06,0,0,1-6.79-.18,10.34,10.34,0,0,0-14.61,0,5,5,0,0,1-7,0,10.34,10.34,0,0,0-14.61,0,5,5,0,0,1-7,0,10.34,10.34,0,0,0-14.61,0,5.05,5.05,0,0,1-7,0,10.35,10.35,0,0,0-14.62,0,4.94,4.94,0,0,1-7,0A6.48,6.48,0,0,1,5.4,74.44V54H116.52ZM43.18,48.57h-27V37.78h27ZM5.4,28V21.59H54V28l-8.73,4.37H14.13ZM123.8,50a2.7,2.7,0,0,0-2.37-1.4H107.94V13.49a2.7,2.7,0,0,0-5.4,0V48.57h-54V36.75l9.31-4.65a2.71,2.71,0,0,0,1.49-2.42V18.89a2.7,2.7,0,0,0-2.7-2.7H32.38V5.4h8.1a2.7,2.7,0,1,0,0-5.4H18.89a2.7,2.7,0,1,0,0,5.4H27V16.19H2.7A2.7,2.7,0,0,0,0,18.89V29.68A2.71,2.71,0,0,0,1.49,32.1l9.3,4.65V48.57H2.7A2.7,2.7,0,0,0,0,51.27V74.44a11.83,11.83,0,0,0,3.49,8.42,10.34,10.34,0,0,0,14.61,0,5,5,0,0,1,7,0,10.34,10.34,0,0,0,14.61,0,5.06,5.06,0,0,1,7,0,10.34,10.34,0,0,0,14.61,0,5.05,5.05,0,0,1,7,0,10.35,10.35,0,0,0,14.62,0,5.05,5.05,0,0,1,7,0,10.35,10.35,0,0,0,14.57,0l.07-.08a5,5,0,0,1,7,0l2.7,2.7A2.7,2.7,0,0,0,118,81.74l-2.7-2.69a10.27,10.27,0,0,0-6.39-3l14.85-23.35A2.71,2.71,0,0,0,123.8,50" fill="#ffac3a"/></g></g></svg>