<?xml version="1.0" encoding="utf-8"?>
<!-- Generator: Adobe Illustrator 26.2.0, SVG Export Plug-In . SVG Version: 6.00 Build 0)  -->
<svg version="1.1" id="Layer_1" xmlns="http://www.w3.org/2000/svg" xmlns:xlink="http://www.w3.org/1999/xlink" x="0px" y="0px"
	 viewBox="0 0 300 300" style="enable-background:new 0 0 300 300;" xml:space="preserve">
<style type="text/css">
	.st0{clip-path:url(#SVGID_00000036962294119344074850000011212106888986276012_);fill:#FFAC3A;}
	
		.st1{clip-path:url(#SVGID_00000036962294119344074850000011212106888986276012_);fill:none;stroke:#FFFFFF;stroke-width:2.2601;stroke-miterlimit:10;}
</style>
<g>
	<g>
		<defs>
			<rect id="SVGID_1_" x="14.4" y="54.9" width="271.2" height="190.1"/>
		</defs>
		<clipPath id="SVGID_00000064325484328158886260000009145000318068327092_">
			<use xlink:href="#SVGID_1_"  style="overflow:visible;"/>
		</clipPath>
		<path style="clip-path:url(#SVGID_00000064325484328158886260000009145000318068327092_);fill:#FFAC3A;" d="M253,224.2
			c-13.8,8-31.3,4.1-40.9-9c-9.3-12.9-6.7-29.8,2.3-38.7c4.3,6.4,8.5,12.7,12.8,19c1.3,1.9,2.6,3.9,4,5.8c2.7,3.7,7.2,4.5,10.8,2.1
			c3.6-2.4,4.6-6.9,2.1-10.8c-4.5-7-9.2-13.9-13.9-20.8c-0.9-1.4-1.8-2.7-2.9-4.3c16.3-5.2,32.4,2,39,16.9
			C272.7,199,267,216.1,253,224.2 M163.1,183.1c-0.7,2.4-1.1,4.9-1.6,7.4c-1,4.8-3,6.4-7.9,6.4c-2.8,0-5.6-0.1-8.3,0
			c-3.4,0.1-5.8-1.3-7.3-4.4c-3.4-7-7.1-13.9-10.4-21c-2-4.2-5-6.1-9.7-6c-6.7,0.2-13.4-0.1-20.1,0.1c-4.1,0.2-6.8-1.5-9-4.9
			c-8.1-12.4-16.4-24.6-24.5-36.9c-2.2-3.4-5-5.2-9.2-5.4C45.6,118,37,111.4,34.7,103H48c5,0,10.1,0.1,15.1,0c3.4-0.1,5.7,1.2,7.6,4
			c8.3,12.6,16.8,25.1,25.1,37.8c2.4,3.6,5.3,5.3,9.7,5.3c9.5-0.2,19-0.1,28.4,0c3.9,0,6.6-1.5,8.7-4.7
			c8.9-13.5,17.9-26.9,26.8-40.4c1-1.5,2-2,3.8-2c8,0.1,16,0.1,24,0c6.1,0,9.1-3,9.1-9.2c0-6.9,0-13.9,0-20.8
			c17.5-0.6,34,23.8,31.1,45.7c-5.8,1.3-11.7,2.2-17.2,4C190.4,132.6,171.3,152.8,163.1,183.1 M141.5,118.8
			c-3.4,5.2-6.7,10.1-10,14.9c-0.3,0.5-1.4,0.6-2.1,0.6c-6.7,0-13.4,0.1-20.1,0c-0.8,0-1.8-0.3-2.2-0.9c-3.3-4.7-6.4-9.5-9.8-14.6
			H141.5z M65.8,165.9c-3.1,2.1-7.2,4-10.2,7c-6.9,6.8-8.7,15.4-5.3,24.5c3.2,8.6,9.6,13.9,18.8,14.8c6.2,0.6,12.5,0.4,18.7,0.5
			c1,0,2,0,3.4,0c-8,13.9-25.3,19.4-39.5,13c-14.7-6.6-22.1-23-17.2-38.2C40,170.6,56.7,164.2,65.8,165.9 M72.9,196.9
			c-5.1,0-8.6-3.3-8.6-7.8c0-4.6,3.5-7.8,8.6-7.8c13.3,0,26.6,0,39.9,0c0.8,0,2.1,0.5,2.5,1.2c2.4,4.6,4.7,9.3,7.2,14.3
			c-0.9,0.1-1.4,0.1-1.9,0.1C104.7,197,88.8,197,72.9,196.9 M280.9,179c-4.3-10.3-11.4-18.3-21.3-23.4c-13.4-7-27.3-7.3-41.3-1.4
			c-2.4-3.6-4.7-7-7.1-10.6c1-0.5,1.7-1,2.5-1.4c9.7-5.1,20.1-7.6,31.1-7.8c4.8-0.1,8.4-2.8,8.4-7.1c0.1-10.5,1.2-21.1-2-31.4
			c-6.7-21.1-20.8-34.5-42.6-38.7c-8.1-1.5-16.6-1-24.9-1.2c-5.1-0.1-8.6,3.3-8.5,7.8c0,4.6,3.5,7.7,8.6,7.8c2.3,0,4.6,0,6.8,0v15.7
			c-7.7,0-15.2,0.1-22.8,0c-3.5,0-6.2,1.3-8.1,4.3c-1.9,3-4.1,5.8-5.9,8.9c-1.2,2-2.6,2.5-4.8,2.5c-18.8-0.1-37.6-0.2-56.4,0.1
			c-4.2,0.1-6.8-1-8.9-4.7C79.1,90.7,72,87.2,63.1,87.3c-11.7,0.1-23.5,0.2-35.2,0c-4.9-0.1-8.4,1.3-10.5,5.8v6.3
			c1.8,5.1,2.8,10.6,5.4,15.3c5.9,10.7,15.4,16.9,27.4,19.1c0.8,0.1,1.9,0.4,2.3,0.9c3.4,4.9,6.7,9.9,9.8,14.6
			c-1.1-0.1-1.8,0-1.9,0.1c-24.7,4.3-44.9,21.8-44.9,47.1c0,26.1,21.1,47.2,47.2,47.2c20.2,0,37.4-12.7,44.2-30.5
			c0.3-0.7,4.1-0.6,4.1-0.6c13.9,0.1,27.8,0,41.7,0c13.6,0,21.9-6.8,24.3-20.1c1.5-7.9,3.8-15.5,7.8-22.5c3.6-6.4,8-12.1,13.6-17.2
			c2.4,3.5,4.6,6.8,6.7,10c-19.7,19.6-18,47.6-3.4,64.5c15.6,18.1,40.7,21.9,60.9,9.3C281.9,224.7,289.7,200.2,280.9,179"/>
		
			<path style="clip-path:url(#SVGID_00000064325484328158886260000009145000318068327092_);fill:none;stroke:#FFFFFF;stroke-width:2.2601;stroke-miterlimit:10;" d="
			M253,224.2c-13.8,8-31.3,4.1-40.9-9c-9.3-12.9-6.7-29.8,2.3-38.7c4.3,6.4,8.5,12.7,12.8,19c1.3,1.9,2.6,3.9,4,5.8
			c2.7,3.7,7.2,4.5,10.8,2.1c3.6-2.4,4.6-6.9,2.1-10.8c-4.5-7-9.2-13.9-13.9-20.8c-0.9-1.4-1.8-2.7-2.9-4.3c16.3-5.2,32.4,2,39,16.9
			C272.7,199,267,216.1,253,224.2z M163.1,183.1c-0.7,2.4-1.1,4.9-1.6,7.4c-1,4.8-3,6.4-7.9,6.4c-2.8,0-5.6-0.1-8.3,0
			c-3.4,0.1-5.8-1.3-7.3-4.4c-3.4-7-7.1-13.9-10.4-21c-2-4.2-5-6.1-9.7-6c-6.7,0.2-13.4-0.1-20.1,0.1c-4.1,0.2-6.8-1.5-9-4.9
			c-8.1-12.4-16.4-24.6-24.5-36.9c-2.2-3.4-5-5.2-9.2-5.4C45.6,118,37,111.4,34.7,103H48c5,0,10.1,0.1,15.1,0c3.4-0.1,5.7,1.2,7.6,4
			c8.3,12.6,16.8,25.1,25.1,37.8c2.4,3.6,5.3,5.3,9.7,5.3c9.5-0.2,19-0.1,28.4,0c3.9,0,6.6-1.5,8.7-4.7
			c8.9-13.5,17.9-26.9,26.8-40.4c1-1.5,2-2,3.8-2c8,0.1,16,0.1,24,0c6.1,0,9.1-3,9.1-9.2c0-6.9,0-13.9,0-20.8
			c17.5-0.6,34,23.8,31.1,45.7c-5.8,1.3-11.7,2.2-17.2,4C190.4,132.6,171.3,152.8,163.1,183.1z M141.5,118.8
			c-3.4,5.2-6.7,10.1-10,14.9c-0.3,0.5-1.4,0.6-2.1,0.6c-6.7,0-13.4,0.1-20.1,0c-0.8,0-1.8-0.3-2.2-0.9c-3.3-4.7-6.4-9.5-9.8-14.6
			H141.5z M65.8,165.9c-3.1,2.1-7.2,4-10.2,7c-6.9,6.8-8.7,15.4-5.3,24.5c3.2,8.6,9.6,13.9,18.8,14.8c6.2,0.6,12.5,0.4,18.7,0.5
			c1,0,2,0,3.4,0c-8,13.9-25.3,19.4-39.5,13c-14.7-6.6-22.1-23-17.2-38.2C40,170.6,56.7,164.2,65.8,165.9z M72.9,196.9
			c-5.1,0-8.6-3.3-8.6-7.8c0-4.6,3.5-7.8,8.6-7.8c13.3,0,26.6,0,39.9,0c0.8,0,2.1,0.5,2.5,1.2c2.4,4.6,4.7,9.3,7.2,14.3
			c-0.9,0.1-1.4,0.1-1.9,0.1C104.7,197,88.8,197,72.9,196.9z M280.9,179c-4.3-10.3-11.4-18.3-21.3-23.4c-13.4-7-27.3-7.3-41.3-1.4
			c-2.4-3.6-4.7-7-7.1-10.6c1-0.5,1.7-1,2.5-1.4c9.7-5.1,20.1-7.6,31.1-7.8c4.8-0.1,8.4-2.8,8.4-7.1c0.1-10.5,1.2-21.1-2-31.4
			c-6.7-21.1-20.8-34.5-42.6-38.7c-8.1-1.5-16.6-1-24.9-1.2c-5.1-0.1-8.6,3.3-8.5,7.8c0,4.6,3.5,7.7,8.6,7.8c2.3,0,4.6,0,6.8,0v15.7
			c-7.7,0-15.2,0.1-22.8,0c-3.5,0-6.2,1.3-8.1,4.3c-1.9,3-4.1,5.8-5.9,8.9c-1.2,2-2.6,2.5-4.8,2.5c-18.8-0.1-37.6-0.2-56.4,0.1
			c-4.2,0.1-6.8-1-8.9-4.7C79.1,90.7,72,87.2,63.1,87.3c-11.7,0.1-23.5,0.2-35.2,0c-4.9-0.1-8.4,1.3-10.5,5.8v6.3
			c1.8,5.1,2.8,10.6,5.4,15.3c5.9,10.7,15.4,16.9,27.4,19.1c0.8,0.1,1.9,0.4,2.3,0.9c3.4,4.9,6.7,9.9,9.8,14.6
			c-1.1-0.1-1.8,0-1.9,0.1c-24.7,4.3-44.9,21.8-44.9,47.1c0,26.1,21.1,47.2,47.2,47.2c20.2,0,37.4-12.7,44.2-30.5
			c0.3-0.7,4.1-0.6,4.1-0.6c13.9,0.1,27.8,0,41.7,0c13.6,0,21.9-6.8,24.3-20.1c1.5-7.9,3.8-15.5,7.8-22.5c3.6-6.4,8-12.1,13.6-17.2
			c2.4,3.5,4.6,6.8,6.7,10c-19.7,19.6-18,47.6-3.4,64.5c15.6,18.1,40.7,21.9,60.9,9.3C281.9,224.7,289.7,200.2,280.9,179z"/>
	</g>
</g>
</svg>
