<svg xmlns="http://www.w3.org/2000/svg" viewBox="0 0 88.52 88.52"><g id="Layer_2" data-name="Layer 2"><g id="Layer_1-2" data-name="Layer 1"><path d="M83.32,83.32H36.45V26H83.32Zm-26-62.49H33.85a2.6,2.6,0,0,0-2.61,2.6V83.32h-26V5.21H57.28ZM88.52,85.92V23.43a2.59,2.59,0,0,0-2.6-2.6H62.49V2.6A2.6,2.6,0,0,0,59.88,0H2.6A2.59,2.59,0,0,0,0,2.6V85.92a2.59,2.59,0,0,0,2.6,2.6H85.92a2.59,2.59,0,0,0,2.6-2.6" fill="#ffac3a"/><path d="M67.7,59.28a7.82,7.82,0,0,1-15.63,0c0-5.54,4.62-12.67,7.81-16.76,3.2,4.08,7.82,11.2,7.82,16.76M58,36.7c-.46.5-11.1,12.33-11.1,22.58a13,13,0,1,0,26,0C72.9,49,62.26,37.2,61.81,36.7a2.69,2.69,0,0,0-3.85,0" fill="#ffac3a"/></g></g></svg>