<svg xmlns="http://www.w3.org/2000/svg" viewBox="0 0 101.69 101.69"><g id="Layer_2" data-name="Layer 2"><g id="Layer_1-2" data-name="Layer 1"><path d="M95.71,77.76h-12v-12h9a3,3,0,0,1,3,3ZM77.76,95.71H59.82V6H77.76ZM20.94,47.85a15,15,0,0,1,15,15v32.9H6v-12h9a3,3,0,1,0,0-6H6v-12h9a3,3,0,1,0,0-6H6.29a15,15,0,0,1,14.65-12m80.75,53.84V68.79a9,9,0,0,0-9-9h-9V3a3,3,0,0,0-3-3H56.83a3,3,0,0,0-3,3V23.93H26.92a9,9,0,0,0-9,9v9.21A21,21,0,0,0,0,62.81V98.7a3,3,0,0,0,3,3H38.88a3,3,0,0,0,3-3V62.81a21,21,0,0,0-17.94-20.7V32.9a3,3,0,0,1,3-3H53.83V98.7a3,3,0,0,0,3,3H80.75a3,3,0,0,0,3-3v-15h12v18Z" fill="#ffac3a"/></g></g></svg>