<?xml version="1.0" encoding="utf-8"?>
<!-- Generator: Adobe Illustrator 26.0.3, SVG Export Plug-In . SVG Version: 6.00 Build 0)  -->
<svg version="1.1" id="Layer_1" xmlns="http://www.w3.org/2000/svg" xmlns:xlink="http://www.w3.org/1999/xlink" x="0px" y="0px"
	 viewBox="0 0 300 300" style="enable-background:new 0 0 300 300;" xml:space="preserve">
<style type="text/css">
	.st0{fill:#FFAC3A;}
</style>
<g>
	<path class="st0" d="M137.4,34.6c8.1,0,16.2,0,24.3,0c0.5,0.1,1,0.3,1.5,0.4c5.6,1.3,10.3,4.1,13,9.2c1.8,3.4,3,7.4,3.4,11.3
		c0.6,4.8,1.9,8.4,7.2,9.3c0.4,0.1,0.7,0.3,1,0.4c1.2,0.8,2.2,0.7,3.4-0.3c2.4-1.9,5-3.6,7.5-5.4c8.3-5.6,17.6-5.3,25.1,1.2
		c5.3,4.7,10.4,9.8,15.2,15.1c6.6,7.3,7.1,16.3,1.9,24.7c-1.8,2.9-4,5.6-5.9,8.5c-0.5,0.7-0.6,2-0.3,2.8c2.6,6.8,2.6,6.8,9.9,7.9
		c0.1,0,0.1,0,0.2,0c5.8,0.8,11.3,2.4,15.4,7c2.8,3,4,6.7,5.2,10.6c0,8.3,0,16.5,0,24.8c-0.1,0.4-0.3,0.8-0.4,1.3
		c-2,8.6-7.3,13.9-15.9,15.9c-3.4,0.8-6.8,1.2-10.2,1.8c-2.2,0.4-5.4,7.8-4.1,9.6c1.8,2.6,3.7,5.1,5.5,7.7
		c5.9,8.6,5.5,18.1-1.5,25.8c-4.5,5-9.3,9.8-14.3,14.3c-8,7.3-17.6,7.5-26.6,1.2c-2.3-1.6-4.6-3.4-7-4.9c-0.7-0.5-2-0.7-2.8-0.4
		c-6.8,2.6-6.8,2.6-7.9,9.9c0,0.1,0,0.1,0,0.2c-0.8,5.7-2.4,11.1-6.8,15.3c-3.2,3-7.1,4.4-11.2,5.4c-8.1,0-16.2,0-24.3,0
		c-0.5-0.1-1-0.3-1.5-0.4c-5.7-1.3-10.5-4.2-13.1-9.4c-1.8-3.5-2.7-7.4-3.4-11.3c-1.3-7-1.1-7-7.3-9.5c-1.3-0.5-2.2-0.3-3.3,0.4
		c-2.8,2.1-5.7,4.2-8.6,6.1c-7.8,5-17.1,4.5-23.9-1.7c-5.6-5-10.8-10.4-15.9-15.9c-5.6-6.1-6.3-15.5-2.1-22.6c2-3.3,4.5-6.4,6.6-9.7
		c0.5-0.7,0.7-2,0.4-2.8c-2.6-6.9-2.7-6.8-9.9-7.9c-0.1,0-0.3,0-0.4-0.1c-5.7-0.8-11.1-2.4-15.3-6.8c-3-3.2-4.4-7.1-5.4-11.2
		c0-8.1,0-16.2,0-24.3c0.2-0.6,0.4-1.1,0.5-1.7c1.8-7.3,6.2-12.5,13.4-14.8c4-1.3,8.2-1.7,12.3-2.4c2.2-0.4,5.4-7.7,4.2-9.6
		c-0.3-0.4-0.6-0.9-0.9-1.3c-1.6-2.2-3.2-4.4-4.7-6.6c-5.9-8.7-5.5-18.2,1.6-26c4.9-5.4,10.1-10.4,15.6-15.3
		c6.1-5.5,15.6-6.1,22.7-1.8c3.2,2,6.2,4.2,9.2,6.4c1.1,0.8,1.9,1,3.2,0.5c6.6-2.8,6.6-2.7,7.7-9.9c0-0.1,0-0.1,0-0.2
		c0.8-5.8,2.3-11.3,6.8-15.5C129.4,37.1,133.3,35.7,137.4,34.6z M210.7,231.3c1.7-1,3.6-1.7,5-3c4.2-4,8.2-8.1,12.3-12.2
		c3.3-3.3,3.5-6.4,0.8-10.2c-2.5-3.6-5.1-7.2-7.7-10.8c-1.9-2.7-2.2-5.4-0.8-8.5c1.8-4.2,3.6-8.4,5.3-12.7c1.2-3.1,3.4-4.8,6.7-5.3
		c4.4-0.7,8.9-1.5,13.3-2.2c4.2-0.7,6.3-3.2,6.3-7.4c0-5.9,0.1-11.9,0-17.8c0-4.2-2.1-6.5-6.2-7.2c-4.4-0.8-8.7-1.5-13.1-2.2
		c-3.4-0.5-5.7-2.3-7-5.6c-1.6-4.1-3.3-8.2-5.1-12.2c-1.5-3.2-1.2-6.1,0.9-8.9c2.6-3.5,5.1-7.1,7.6-10.6c2.7-3.9,2.5-6.9-0.9-10.2
		c-4-4.1-8.1-8.1-12.1-12.1c-3.2-3.2-6.1-3.5-9.8-0.9c-3.6,2.5-7.3,5.1-10.8,7.7c-2.9,2.1-5.8,2.4-9.1,0.9
		c-4.1-1.9-8.2-3.6-12.5-5.1c-3.4-1.3-5.2-3.5-5.8-7.1c-0.7-4.3-1.4-8.6-2.2-12.9c-0.8-4.3-3.1-6.3-7.4-6.3c-5.9,0-11.7,0-17.6,0
		c-4.3,0-6.8,2.2-7.5,6.5c-0.8,4.4-1.5,8.7-2.2,13.1c-0.5,3.4-2.3,5.7-5.6,7c-4,1.6-8.1,3.2-12,5.1c-3.3,1.5-6.3,1.3-9.3-0.9
		c-3.5-2.6-7-5.1-10.6-7.6C90.1,68.7,87,69,83.9,72c-4.1,4.1-8.2,8.1-12.3,12.2c-3.4,3.4-3.6,6.3-0.9,10.2c2.5,3.6,5.1,7.3,7.7,10.8
		c2,2.7,2.3,5.6,0.9,8.7c-1.8,4.1-3.5,8.3-5.1,12.5c-1.2,3.2-3.4,5-6.7,5.5c-4.4,0.7-8.7,1.5-13.1,2.2c-4.2,0.7-6.3,3.2-6.3,7.4
		c-0.1,5.9,0,11.7,0,17.6c0,4.3,2.1,6.7,6.3,7.5c4.4,0.8,8.9,1.6,13.3,2.3c3.4,0.5,5.7,2.3,7,5.6c1.6,4.1,3.3,8.2,5.1,12.2
		c1.5,3.2,1.2,6.1-0.9,8.9c-2.5,3.4-5,6.9-7.5,10.4c-2.8,4-2.5,6.9,0.9,10.4c3.9,3.9,7.9,7.9,11.8,11.8c3.5,3.5,6.4,3.7,10.4,0.9
		c3.6-2.6,7.2-5.1,10.8-7.7c2.7-2,5.6-2.2,8.7-0.8c3.9,1.7,7.9,3.4,11.8,4.9c3.3,1.2,5.1,3.5,5.6,6.9c0.7,4.4,1.4,8.7,2.2,13.1
		c0.8,4.3,3.1,6.3,7.4,6.4c5.9,0.1,11.9,0.1,17.8,0c4.1,0,6.6-2.2,7.3-6.2c0.8-4.4,1.6-8.7,2.2-13.1c0.5-3.5,2.3-5.9,5.7-7.1
		c4.1-1.5,8.1-3.2,12-5c3.3-1.5,6.2-1.2,9.1,0.9c3.5,2.6,7,5.1,10.6,7.6C207.2,229.8,208.8,230.3,210.7,231.3z"/>
	<path class="st0" d="M150,194.9c-24.6,0-44.9-20.2-44.9-44.9c0-24.6,20.2-44.9,44.9-44.9c24.6,0,44.9,20.2,44.9,44.9
		C194.9,174.6,174.7,194.8,150,194.9z M118.7,150c0,17.2,13.9,31.2,31.2,31.4c17.1,0.2,31.4-14.1,31.5-31.3
		c0-17.2-13.9-31.2-31.2-31.4C133,118.5,118.7,132.7,118.7,150z"/>
</g>
</svg>
